<svg width="28" height="23" viewBox="0 0 28 23" fill="none" xmlns="http://www.w3.org/2000/svg">
<path d="M20.8898 18.0194L14.5322 11.5598C14.3927 11.4188 14.3145 11.2286 14.3145 11.0303C14.3145 10.8321 14.3927 10.6418 14.5322 10.5009L20.8884 4.04125C21.0277 3.89944 21.1058 3.70856 21.1058 3.50973C21.1058 3.3109 21.0277 3.12002 20.8884 2.97821C20.8203 2.90837 20.7389 2.85288 20.6491 2.81498C20.5592 2.77709 20.4627 2.75756 20.3651 2.75756C20.2676 2.75756 20.1711 2.77709 20.0812 2.81498C19.9913 2.85288 19.91 2.90837 19.8419 2.97821L13.4857 9.43645C13.068 9.86184 12.834 10.4342 12.834 11.0303C12.834 11.6265 13.068 12.1988 13.4857 12.6242L19.8419 19.0825C19.91 19.1525 19.9914 19.2082 20.0814 19.2462C20.1714 19.2842 20.2681 19.3038 20.3658 19.3038C20.4635 19.3038 20.5602 19.2842 20.6502 19.2462C20.7402 19.2082 20.8217 19.1525 20.8898 19.0825C21.0291 18.9406 21.1072 18.7498 21.1072 18.5509C21.1072 18.3521 21.0291 18.1612 20.8898 18.0194Z" fill="#225B9B"/>
<path d="M14.9501 18.0194L8.59247 11.5598C8.45303 11.4188 8.37482 11.2286 8.37482 11.0303C8.37482 10.8321 8.45303 10.6418 8.59247 10.5009L14.9487 4.04125C15.088 3.89944 15.1661 3.70856 15.1661 3.50973C15.1661 3.3109 15.088 3.12002 14.9487 2.97821C14.8806 2.90837 14.7992 2.85288 14.7094 2.81498C14.6195 2.77709 14.523 2.75756 14.4254 2.75756C14.3279 2.75756 14.2314 2.77709 14.1415 2.81498C14.0516 2.85288 13.9703 2.90837 13.9022 2.97821L7.54597 9.43645C7.1283 9.86184 6.89429 10.4342 6.89429 11.0303C6.89429 11.6265 7.1283 12.1988 7.54597 12.6242L13.9022 19.0825C13.9703 19.1525 14.0517 19.2082 14.1417 19.2462C14.2317 19.2842 14.3284 19.3038 14.4261 19.3038C14.5238 19.3038 14.6205 19.2842 14.7105 19.2462C14.8005 19.2082 14.882 19.1525 14.9501 19.0825C15.0894 18.9406 15.1675 18.7498 15.1675 18.5509C15.1675 18.3521 15.0894 18.1612 14.9501 18.0194Z" fill="#225B9B"/>
</svg>
