<svg width="67" height="67" viewBox="0 0 67 67" fill="none" xmlns="http://www.w3.org/2000/svg">
<path d="M11.1673 50.25H16.7507V61.6428L30.9909 50.25H44.6673C47.7465 50.25 50.2506 47.7459 50.2506 44.6667V22.3333C50.2506 19.2541 47.7465 16.75 44.6673 16.75H11.1673C8.08811 16.75 5.58398 19.2541 5.58398 22.3333V44.6667C5.58398 47.7459 8.08811 50.25 11.1673 50.25Z" fill="#225B9B" stroke="#FDFEFD"/>
<path d="M55.8333 5.58307H22.3333C19.2541 5.58307 16.75 8.08719 16.75 11.1664H50.25C53.3292 11.1664 55.8333 13.6705 55.8333 16.7497V39.0831C58.9125 39.0831 61.4167 36.5789 61.4167 33.4997V11.1664C61.4167 8.08719 58.9125 5.58307 55.8333 5.58307Z" fill="#225B9B" stroke="#FDFEFD"/>
</svg>
