<svg width="22" height="22" viewBox="0 0 22 22" fill="none" xmlns="http://www.w3.org/2000/svg">
<g clip-path="url(#clip0_147_425)">
<path fill-rule="evenodd" clip-rule="evenodd" d="M10.9995 12.945L15.8606 17.8061C16.1185 18.0641 16.4684 18.209 16.8331 18.209C17.1979 18.209 17.5478 18.0641 17.8057 17.8061C18.0637 17.5482 18.2086 17.1983 18.2086 16.8335C18.2086 16.4687 18.0637 16.1189 17.8057 15.8609L12.9428 10.9999L17.8048 6.13877C17.9325 6.01105 18.0337 5.85944 18.1028 5.69258C18.1719 5.52573 18.2074 5.34691 18.2073 5.16632C18.2073 4.98574 18.1717 4.80694 18.1025 4.64011C18.0334 4.47329 17.9321 4.32173 17.8043 4.19407C17.6766 4.0664 17.525 3.96515 17.3582 3.89608C17.1913 3.82702 17.0125 3.79149 16.8319 3.79153C16.6513 3.79157 16.4725 3.82719 16.3057 3.89633C16.1389 3.96548 15.9873 4.0668 15.8596 4.19452L10.9995 9.05561L6.13839 4.19452C6.01161 4.06314 5.85994 3.95832 5.69222 3.88618C5.5245 3.81404 5.34409 3.77602 5.16152 3.77435C4.97895 3.77268 4.79787 3.80738 4.62886 3.87644C4.45984 3.9455 4.30628 4.04752 4.17711 4.17656C4.04795 4.3056 3.94578 4.45908 3.87656 4.62802C3.80735 4.79697 3.77247 4.97802 3.77397 5.16059C3.77547 5.34316 3.81332 5.5236 3.8853 5.69139C3.95728 5.85918 4.06196 6.01096 4.19322 6.13786L9.05614 10.9999L4.19414 15.8619C4.06288 15.9888 3.9582 16.1405 3.88622 16.3083C3.81423 16.4761 3.77639 16.6566 3.77489 16.8391C3.77339 17.0217 3.80826 17.2027 3.87748 17.3717C3.9467 17.5406 4.04887 17.6941 4.17803 17.8232C4.30719 17.9522 4.46076 18.0542 4.62977 18.1233C4.79879 18.1923 4.97986 18.227 5.16243 18.2254C5.345 18.2237 5.52541 18.1857 5.69313 18.1135C5.86086 18.0414 6.01253 17.9366 6.13931 17.8052L10.9995 12.945Z" fill="#225B9B"/>
</g>
<defs>
<clipPath id="clip0_147_425">
<rect width="22" height="22" fill="white"/>
</clipPath>
</defs>
</svg>
