<svg width="86" height="74" viewBox="0 0 86 74" fill="none" xmlns="http://www.w3.org/2000/svg">
<path d="M0.000144958 73.8138L0.000146121 60.5203C6.99673 59.3542 11.8943 56.9054 14.693 53.1739C17.4916 49.4424 18.8909 42.7956 18.8909 33.2336L1.04965 33.2336L1.04965 -0.000137101L35.3329 -0.000134104L35.3329 27.9862C35.3329 42.4458 32.6509 53.6403 27.2868 61.5698C21.9228 69.7324 12.8272 73.8138 0.000144958 73.8138ZM50.3755 73.8138L50.3755 60.5203C57.3721 59.3542 62.2697 56.9054 65.0683 53.1739C67.867 49.4424 69.2663 42.7956 69.2663 33.2336L51.425 33.2336L51.425 -0.000132697L85.7083 -0.0001297L85.7083 27.9862C85.7083 42.4458 83.0262 53.6403 77.6622 61.5698C72.2981 69.7324 63.2026 73.8138 50.3755 73.8138Z" fill="#225B9B"/>
</svg>
