<svg width="15" height="15" viewBox="0 0 15 15" fill="none" xmlns="http://www.w3.org/2000/svg">
<path d="M7.37624 4.54395C6.71984 4.54395 6.09034 4.8047 5.6262 5.26884C5.16206 5.73298 4.90131 6.36248 4.90131 7.01887C4.90131 7.67527 5.16206 8.30477 5.6262 8.76891C6.09034 9.23305 6.71984 9.4938 7.37624 9.4938C8.03263 9.4938 8.66214 9.23305 9.12628 8.76891C9.59041 8.30477 9.85117 7.67527 9.85117 7.01887C9.85117 6.36248 9.59041 5.73298 9.12628 5.26884C8.66214 4.8047 8.03263 4.54395 7.37624 4.54395Z" fill="#FDFEFD"/>
<path fill-rule="evenodd" clip-rule="evenodd" d="M3.39344 0.227627C6.04049 -0.0657846 8.71186 -0.0657846 11.3589 0.227627C12.805 0.389069 13.9709 1.52754 14.1407 2.97899C14.4546 5.66307 14.4546 8.3746 14.1407 11.0587C13.9709 12.5101 12.805 13.6486 11.3597 13.8108C8.71237 14.1043 6.04074 14.1043 3.39344 13.8108C1.94732 13.6486 0.781442 12.5101 0.611624 11.0594C0.297672 8.3751 0.297672 5.66332 0.611624 2.97899C0.781442 1.52754 1.94732 0.389069 3.39344 0.227627ZM11.1838 2.44973C10.9818 2.44973 10.7881 2.52996 10.6453 2.67278C10.5025 2.81559 10.4222 3.00928 10.4222 3.21125C10.4222 3.41322 10.5025 3.60691 10.6453 3.74972C10.7881 3.89254 10.9818 3.97277 11.1838 3.97277C11.3857 3.97277 11.5794 3.89254 11.7222 3.74972C11.865 3.60691 11.9453 3.41322 11.9453 3.21125C11.9453 3.00928 11.865 2.81559 11.7222 2.67278C11.5794 2.52996 11.3857 2.44973 11.1838 2.44973ZM3.75897 7.01883C3.75897 6.05949 4.14007 5.13944 4.81843 4.46108C5.49678 3.78273 6.41683 3.40163 7.37618 3.40163C8.33552 3.40163 9.25557 3.78273 9.93393 4.46108C10.6123 5.13944 10.9934 6.05949 10.9934 7.01883C10.9934 7.97818 10.6123 8.89823 9.93393 9.57658C9.25557 10.2549 8.33552 10.636 7.37618 10.636C6.41683 10.636 5.49678 10.2549 4.81843 9.57658C4.14007 8.89823 3.75897 7.97818 3.75897 7.01883Z" fill="#FDFEFD"/>
</svg>
