<svg width="15" height="15" viewBox="0 0 15 15" fill="none" xmlns="http://www.w3.org/2000/svg">
<path d="M13.0313 0.96873C13.5638 0.96873 14.0337 1.43861 14.0337 2.00246V14C14.0337 14.5639 13.5638 15.0024 13.0313 15.0024H0.97108C0.438552 15.0024 0 14.5639 0 14V2.00246C0 1.43861 0.438552 0.96873 0.97108 0.96873H13.0313ZM4.2289 12.9976V6.32533H2.16144V12.9976H4.2289ZM3.19517 5.38558C3.853 5.38558 4.38552 4.85305 4.38552 4.19522C4.38552 3.53739 3.853 2.97354 3.19517 2.97354C2.50601 2.97354 1.97349 3.53739 1.97349 4.19522C1.97349 4.85305 2.50601 5.38558 3.19517 5.38558ZM12.0289 12.9976V9.33255C12.0289 7.54702 11.6216 6.13738 9.52285 6.13738C8.52045 6.13738 7.83129 6.70124 7.54937 7.23376H7.51804V6.32533H5.54455V12.9976H7.61202V9.70845C7.61202 8.83135 7.76864 7.98557 8.86502 7.98557C9.93008 7.98557 9.93008 8.98797 9.93008 9.73978V12.9976H12.0289Z" fill="#FDFEFD"/>
</svg>
