<svg width="18" height="13" viewBox="0 0 18 13" fill="none" xmlns="http://www.w3.org/2000/svg">
<path d="M17.5737 2.88197C17.9496 4.19763 17.9496 7.01689 17.9496 7.01689C17.9496 7.01689 17.9496 9.80483 17.5737 11.1518C17.3857 11.9036 16.7905 12.4675 16.0701 12.6554C14.7231 13 9.39781 13 9.39781 13C9.39781 13 4.0412 13 2.69422 12.6554C1.97374 12.4675 1.37857 11.9036 1.19061 11.1518C0.814712 9.80483 0.814712 7.01689 0.814712 7.01689C0.814712 7.01689 0.814712 4.19763 1.19061 2.88197C1.37857 2.13017 1.97374 1.53499 2.69422 1.34704C4.0412 0.971135 9.39781 0.971135 9.39781 0.971135C9.39781 0.971135 14.7231 0.971135 16.0701 1.34704C16.7905 1.53499 17.3857 2.13017 17.5737 2.88197ZM7.6436 9.55423L12.0918 7.01689L7.6436 4.47955V9.55423Z" fill="#FDFEFD"/>
</svg>
