<svg width="167" height="167" viewBox="0 0 167 167" fill="none" xmlns="http://www.w3.org/2000/svg">
<path d="M135.751 58.6414C133.479 60.899 130.406 62.1661 127.203 62.1661C124 62.1661 120.928 60.899 118.656 58.6414L108.617 48.6027C106.358 46.3309 105.089 43.2569 105.089 40.0527C105.089 36.8484 106.358 33.7744 108.617 31.5026L131.338 8.76922C131.383 8.72597 131.417 8.67226 131.436 8.61289C131.455 8.55352 131.459 8.49033 131.448 8.42897C131.437 8.36761 131.411 8.30998 131.372 8.26123C131.333 8.21248 131.282 8.17413 131.225 8.14959C116.559 1.86268 97.5439 5.06659 85.4693 17.0548C73.9161 28.5216 73.2588 45.7691 77.4902 60.8214C78.0914 62.961 78.0899 65.225 77.4859 67.3638C76.8819 69.5026 75.6988 71.4329 74.0673 72.9419L11.1254 130.427C9.26834 132.074 7.7677 134.083 6.71573 136.331C5.66375 138.579 5.08266 141.018 5.00819 143.499C4.93373 145.98 5.36745 148.449 6.28269 150.757C7.19794 153.064 8.57537 155.159 10.3303 156.914C12.0852 158.669 14.1805 160.046 16.4874 160.962C18.7944 161.877 21.2641 162.311 23.7448 162.236C26.2255 162.162 28.6648 161.581 30.9127 160.529C33.1605 159.477 35.1694 157.976 36.8159 156.119L94.9446 93.023C96.4343 91.4188 98.3325 90.2503 100.436 89.6426C102.539 89.0349 104.768 89.011 106.883 89.5735C121.821 93.5746 138.823 92.8227 150.225 81.5675C162.499 69.4773 165.148 48.1078 159.198 35.8778C159.171 35.8243 159.132 35.778 159.083 35.7426C159.035 35.7072 158.979 35.6838 158.92 35.6742C158.861 35.6646 158.801 35.6691 158.744 35.6874C158.687 35.7058 158.635 35.7373 158.593 35.7795L135.751 58.6414Z" stroke="#225B9B" stroke-width="9.2046" stroke-miterlimit="10" stroke-linecap="round"/>
<circle cx="23.4093" cy="143.835" r="6.90345" fill="#225B9B"/>
</svg>
