<svg width="176" height="175" viewBox="0 0 176 175" fill="none" xmlns="http://www.w3.org/2000/svg">
<path fill-rule="evenodd" clip-rule="evenodd" d="M0.172363 4.85798C0.172363 3.56957 0.684186 2.33392 1.59523 1.42287C2.50628 0.511823 3.74193 0 5.03035 0H48.7522C50.0406 0 51.2763 0.511823 52.1873 1.42287C53.0984 2.33392 53.6102 3.56957 53.6102 4.85798V48.5798C53.6102 49.8682 53.0984 51.1039 52.1873 52.0149C51.2763 52.926 50.0406 53.4378 48.7522 53.4378H5.03035C3.74193 53.4378 2.50628 52.926 1.59523 52.0149C0.684186 51.1039 0.172363 49.8682 0.172363 48.5798V4.85798ZM121.622 126.308C121.622 125.019 122.134 123.783 123.045 122.872C123.956 121.961 125.191 121.45 126.48 121.45H170.202C171.49 121.45 172.726 121.961 173.637 122.872C174.548 123.783 175.06 125.019 175.06 126.308V170.029C175.06 171.318 174.548 172.553 173.637 173.465C172.726 174.376 171.49 174.887 170.202 174.887H126.48C125.191 174.887 123.956 174.376 123.045 173.465C122.134 172.553 121.622 171.318 121.622 170.029V126.308ZM118.663 111.622L103.196 96.154L96.3264 103.023L111.794 118.491L118.663 111.622ZM76.331 69.2894L95.6511 88.6096L88.782 95.4837L69.4618 76.1586V96.6496H59.7458V59.5734H96.8219V69.2894H76.331Z" fill="#225B9B"/>
</svg>
