<svg width="237" height="237" viewBox="0 0 237 237" fill="none" xmlns="http://www.w3.org/2000/svg">
<path fill-rule="evenodd" clip-rule="evenodd" d="M30.0874 37.678C30.0874 33.8653 33.1782 30.7746 36.9909 30.7746H174.772C178.585 30.7746 181.676 33.8653 181.676 37.678V50.3343C181.676 53.035 179.486 55.2243 176.786 55.2243C174.085 55.2243 171.896 53.035 171.896 50.3343V47.4579C171.896 43.6452 168.805 40.5545 164.992 40.5545H46.7707C42.9581 40.5545 39.8673 43.6452 39.8673 47.4579V146.12C39.8673 149.932 42.9581 153.023 46.7707 153.023H139.559C142.259 153.023 144.448 155.212 144.448 157.913C144.448 160.614 142.259 162.803 139.559 162.803H36.9909C33.1782 162.803 30.0874 159.712 30.0874 155.9V37.678ZM176.786 94.3438C180.676 94.3438 184.408 92.7983 187.159 90.0471C189.91 87.296 191.456 83.5647 191.456 79.674C191.456 75.7833 189.91 72.052 187.159 69.3009C184.408 66.5497 180.676 65.0042 176.786 65.0042C172.895 65.0042 169.164 66.5497 166.413 69.3009C163.661 72.052 162.116 75.7833 162.116 79.674C162.116 83.5647 163.661 87.296 166.413 90.0471C169.164 92.7983 172.895 94.3438 176.786 94.3438ZM186.717 104.173C193.069 104.173 198.096 107.028 201.387 111.439C204.463 115.571 205.763 120.681 206.057 125.4C206.344 130.24 205.685 135.09 204.116 139.678C202.987 142.951 201.259 146.311 198.781 149.061C197.366 150.631 196.345 152.584 196.345 154.697V199.478C196.349 201.32 195.659 203.097 194.412 204.454C193.165 205.811 191.453 206.649 189.616 206.802C187.78 206.954 185.953 206.409 184.5 205.276C183.047 204.143 182.073 202.504 181.773 200.685L175.586 163.529C175.517 163.11 175.154 162.803 174.729 162.803C174.311 162.803 173.952 163.101 173.875 163.512L166.879 200.827C166.54 202.622 165.544 204.226 164.086 205.325C162.628 206.424 160.812 206.94 158.993 206.771C157.175 206.602 155.485 205.761 154.253 204.412C153.022 203.063 152.338 201.304 152.336 199.478V135.058C152.336 133.472 150.289 132.865 149.441 134.207L149.06 134.808L148.962 134.965L148.937 135.009C148.278 136.067 147.361 136.939 146.271 137.544C145.18 138.149 143.954 138.466 142.708 138.466H118.258C116.313 138.466 114.447 137.693 113.071 136.317C111.696 134.942 110.923 133.076 110.923 131.131C110.923 129.186 111.696 127.32 113.071 125.944C114.447 124.569 116.313 123.796 118.258 123.796H134.925C137.268 123.796 139.446 122.604 140.74 120.651C141.477 119.538 142.268 118.357 143.079 117.175C144.791 114.676 146.678 112.031 148.36 109.957C149.177 108.945 150.091 107.889 151.011 107.023C151.461 106.598 152.087 106.045 152.849 105.556C154.196 104.673 155.767 104.194 157.377 104.177L186.717 104.173Z" fill="#225B9B"/>
</svg>
